<svg width="64" height="32" viewBox="0 0 64 32" fill="none" xmlns="http://www.w3.org/2000/svg">
<rect x="0.5" y="0.5" width="63" height="31" rx="15.5" fill="white" stroke="black"/>
<path d="M16 0.5H27.5V31.5H16C7.43959 31.5 0.5 24.5604 0.5 16C0.5 7.43959 7.43959 0.5 16 0.5Z" fill="#FFF500" stroke="black"/>
<path d="M32.739 12.78C32.739 12.0467 32.8636 11.3867 33.113 10.8C33.3623 10.1987 33.7143 9.68533 34.169 9.26C34.6236 8.83467 35.1736 8.512 35.819 8.292C36.479 8.05733 37.205 7.94 37.997 7.94C38.789 7.94 39.5076 8.05733 40.153 8.292C40.813 8.512 41.3703 8.83467 41.825 9.26C42.2796 9.68533 42.6316 10.1987 42.881 10.8C43.1303 11.3867 43.255 12.0467 43.255 12.78V19.358C43.255 20.0767 43.1303 20.7367 42.881 21.338C42.6316 21.9393 42.2723 22.4527 41.803 22.878C41.3483 23.3033 40.7983 23.6333 40.153 23.868C39.5076 24.1027 38.789 24.22 37.997 24.22C37.205 24.22 36.479 24.11 35.819 23.89C35.1736 23.6553 34.6236 23.3253 34.169 22.9C33.7143 22.4747 33.3623 21.9613 33.113 21.36C32.8636 20.7587 32.739 20.0913 32.739 19.358V12.78ZM35.423 19.358C35.423 20.106 35.6576 20.7 36.127 21.14C36.5963 21.58 37.2196 21.8 37.997 21.8C38.7743 21.8 39.3976 21.58 39.867 21.14C40.3363 20.7 40.571 20.106 40.571 19.358V12.78C40.571 12.032 40.3363 11.438 39.867 10.998C39.3976 10.558 38.7743 10.338 37.997 10.338C37.2196 10.338 36.5963 10.558 36.127 10.998C35.6576 11.438 35.423 12.032 35.423 12.78V19.358ZM36.963 14.562C36.963 14.21 37.0583 13.9313 37.249 13.726C37.4396 13.506 37.689 13.396 37.997 13.396C38.305 13.396 38.5543 13.506 38.745 13.726C38.9356 13.9313 39.031 14.21 39.031 14.562V17.818C39.031 18.1553 38.9356 18.434 38.745 18.654C38.5543 18.8593 38.305 18.962 37.997 18.962C37.689 18.962 37.4396 18.8593 37.249 18.654C37.0583 18.434 36.963 18.1553 36.963 17.818V14.562ZM46.3044 21.602H50.5504V12.142C50.5504 11.9073 50.5504 11.6947 50.5504 11.504C50.565 11.3133 50.5797 11.1447 50.5944 10.998C50.609 10.822 50.6237 10.668 50.6384 10.536H50.5944C50.5064 10.6093 50.4184 10.69 50.3304 10.778C50.2424 10.8513 50.1397 10.932 50.0224 11.02C49.905 11.108 49.7804 11.196 49.6484 11.284L46.5464 13.33V10.646L50.1324 8.16H53.3004V21.602H56.7544V24H46.3044V21.602Z" fill="black"/>
<path d="M10.716 21.602H14.962V12.142C14.962 11.9073 14.962 11.6947 14.962 11.504C14.9767 11.3133 14.9913 11.1447 15.006 10.998C15.0207 10.822 15.0353 10.668 15.05 10.536H15.006C14.918 10.6093 14.83 10.69 14.742 10.778C14.654 10.8513 14.5513 10.932 14.434 11.02C14.3167 11.108 14.192 11.196 14.06 11.284L10.958 13.33V10.646L14.544 8.16H17.712V21.602H21.166V24H10.716V21.602Z" fill="#030303"/>
</svg>
